Coordinates
version=1
nRows=10
nColumns=40
inDegrees=yes

Units are S.I. units (second, meters, Newtons, ...)
Angles are in degrees.

endheader
time	pelvis_tilt	pelvis_list	pelvis_rotation	pelvis_tx	pelvis_ty	pelvis_tz	hip_flexion_r	hip_adduction_r	hip_rotation_r	knee_angle_r	knee_angle_r_beta	ankle_angle_r	subtalar_angle_r	mtp_angle_r	hip_flexion_l	hip_adduction_l	hip_rotation_l	knee_angle_l	knee_angle_l_beta	ankle_angle_l	subtalar_angle_l	mtp_angle_l	lumbar_extension	lumbar_bending	lumbar_rotation	arm_flex_r	arm_add_r	arm_rot_r	elbow_flex_r	pro_sup_r	wrist_flex_r	wrist_dev_r	arm_flex_l	arm_add_l	arm_rot_l	elbow_flex_l	pro_sup_l	wrist_flex_l	wrist_dev_l
      1.75750000	     -3.73456969	     -4.92695522	      7.74076658	      1.01366366	      0.92052071	      0.50747339	     -3.38907176	      3.46563303	    -18.67908221	      9.48928290	      9.48928290	     15.97300195	     -0.95007587	     -5.66385547	     27.01874087	     -6.62328628	     -0.50261043	     23.86238524	     23.86238524	      3.17114147	    -13.23358099	     -0.79676236	     -7.65385073	      2.94371635	      4.24146194	     38.00845878	    -18.43155747	    -15.54326912	     93.97425898	     44.56851150	      0.00000000	      0.00000000	     -5.39837315	     -8.02280043	     -2.58983992	     32.26979310	     45.41911736	      0.00000000	      0.00000000
      1.77628571	     -3.53322839	     -4.75448929	      7.57776663	      1.01545393	      0.92088582	      0.50310273	     -3.78792736	      2.91050636	    -18.47695815	     10.21873857	     10.21873857	     16.03861111	     -1.28269268	     -5.46259986	     26.58338387	     -6.24970203	     -0.39185382	     24.63835848	     24.63835848	      3.92769819	    -13.88755117	     -0.91544127	     -7.76666999	      2.82379308	      4.35494206	     37.43513821	    -18.16359447	    -15.41302367	     93.31180803	     44.58557592	      0.00000000	      0.00000000	     -4.21690995	     -8.01206421	     -2.67749453	     32.81475700	     45.45085041	      0.00000000	      0.00000000
      1.79507143	     -3.57212404	     -4.58369321	      7.34541073	      1.01681873	      0.92117151	      0.49878312	     -3.36401145	      2.16105350	    -17.92768807	     12.08912484	     12.08912484	     17.31061980	     -1.92213866	     -2.14993004	     26.45336849	     -5.78998829	     -0.14346796	     25.56037412	     25.56037412	      5.83632089	    -14.30153653	      2.25434788	     -7.52618536	      2.57499536	      4.21726994	     37.48777061	    -17.71249176	    -15.34529858	     90.09839370	     44.73908811	      0.00000000	      0.00000000	     -3.27725410	     -7.77615898	     -4.32691632	     33.57084702	     45.70978238	      0.00000000	      0.00000000
      1.81385714	     -3.37522642	     -4.54800367	      7.20868957	      1.01849396	      0.92184748	      0.49438702	     -3.71329396	      1.72027079	    -17.82340130	     12.81120281	     12.81120281	     17.11213089	     -2.01209679	     -2.17011141	     25.85635099	     -5.56876228	     -0.16959736	     25.95980670	     25.95980670	      6.49352516	    -14.59351563	      1.99942256	     -7.63670945	      2.64563284	      4.19218040	     36.59816326	    -17.20488570	    -15.08641157	     89.51114267	     44.74759858	      0.00000000	      0.00000000	     -1.95777682	     -7.68644598	     -4.34705710	     34.08380472	     45.73280953	      0.00000000	      0.00000000
      1.83264286	     -3.34821544	     -4.32836432	      6.90034682	      1.01984876	      0.92233801	      0.48999673	     -3.28596381	      0.80506557	    -17.61915212	     14.72523033	     14.72523033	     17.18391613	     -2.34876505	     -2.50258818	     25.30062163	     -5.19203825	     -0.46643413	     26.18171475	     26.18171475	      7.11674358	    -14.76285158	      1.98927848	     -7.53329205	      2.43102145	      4.59166912	     35.64990471	    -17.28429812	    -15.09467622	     87.42799622	     44.81946083	      0.00000000	      0.00000000	     -0.46835061	     -7.57680451	     -4.49992264	     34.56106620	     45.77607525	      0.00000000	      0.00000000
      1.85142857	     -3.24614586	     -4.21988647	      6.63558536	      1.02115020	      0.92309231	      0.48573610	     -2.99623267	      0.06169622	    -17.42429848	     16.43845083	     16.43845083	     17.00353160	     -2.59722987	     -2.84693538	     24.64656725	     -4.93056946	     -0.69305298	     26.31132437	     26.31132437	      7.75191509	    -14.86880069	      2.00004095	     -7.52475796	      2.36393925	      4.64152112	     34.63089310	    -16.83907000	    -14.97116502	     85.44024600	     44.88219943	      0.00000000	      0.00000000	      0.91947783	     -7.52448477	     -4.57174956	     34.85432196	     45.80630854	      0.00000000	      0.00000000
      1.87021429	     -3.19905717	     -4.15295176	      6.35109175	      1.02228400	      0.92384764	      0.48153571	     -2.47816285	     -0.69763062	    -17.19330977	     18.41366156	     18.41366156	     16.74497893	     -2.89956998	     -3.42899187	     24.00283972	     -4.72458021	     -1.02030150	     26.30722096	     26.30722096	      8.28185396	    -14.88816862	      2.05336993	     -7.46669365	      2.34907678	      4.56167063	     33.57029168	    -16.37635127	    -14.81743842	     83.13697001	     44.95413666	      0.00000000	      0.00000000	      2.38329566	     -7.48308369	     -4.58829226	     35.13443467	     45.83010121	      0.00000000	      0.00000000
      1.88900000	     -2.86360510	     -4.38191310	      6.19191135	      1.02362910	      0.92512637	      0.47744775	     -2.46627130	     -0.99309509	    -17.04901665	     19.90762477	     19.90762477	     16.24306858	     -3.05702846	     -3.68385146	     23.08491687	     -4.82130827	     -1.07716821	     26.27794389	     26.27794389	      8.75292037	    -14.91959907	      1.96017926	     -7.75398298	      2.76628885	      4.26786767	     32.00576837	    -15.59386507	    -14.50048331	     82.05837717	     44.97283384	      0.00000000	      0.00000000	      3.75769446	     -7.52682062	     -4.56741149	     35.59962425	     45.84789576	      0.00000000	      0.00000000
      1.90778571	     -3.04957745	     -4.01576457	      5.72873042	      1.02418726	      0.92544638	      0.47344492	     -0.95471646	     -2.31298943	    -16.47384472	     23.17564604	     23.17564604	     15.39848299	     -4.17321522	     -6.17347588	     22.57003790	     -4.33191447	     -1.74275497	     26.10661360	     26.10661360	      9.31483262	    -14.78362463	      2.16384099	     -7.38486603	      2.32427847	      3.99777008	     31.79887468	    -15.08413270	    -14.15916241	     76.20864284	     45.16694671	      0.00000000	      0.00000000	      5.21685788	     -7.68158560	     -4.23635548	     35.44124374	     45.82849691	      0.00000000	      0.00000000
      1.92657143	     -2.98785785	     -3.90864734	      5.37928705	      1.02483041	      0.92619553	      0.46960156	      0.11986553	     -3.19217868	    -15.96326448	     25.92616235	     25.92616235	     13.85917115	     -5.53315255	     -9.12865243	     21.82858846	     -4.11669513	     -2.20248388	     25.89130464	     25.89130464	      9.72747852	    -14.65270493	      2.09794097	     -7.38692361	      2.26882533	      3.54178451	     30.86717823	    -14.48641796	    -13.24858348	     72.54116225	     45.27047540	      0.00000000	      0.00000000	      6.25117500	     -8.01186764	     -3.99181387	     36.38807223	     45.82335650	      0.00000000	      0.00000000
